<svg width="8" height="8" viewBox="0 0 8 8" fill="none" xmlns="http://www.w3.org/2000/svg">
<g clip-path="url(#clip0_799_949)">
<mask id="mask0_799_949" style="mask-type:luminance" maskUnits="userSpaceOnUse" x="0" y="0" width="7" height="7">
<path d="M3.53626 6.48292C3.92333 6.48342 4.30667 6.40742 4.66427 6.25929C5.02188 6.11116 5.34668 5.89383 5.62001 5.61977C5.89407 5.34643 6.11141 5.02163 6.25954 4.66403C6.40766 4.30643 6.48366 3.92308 6.48316 3.53602C6.48365 3.14895 6.40765 2.7656 6.25953 2.408C6.1114 2.0504 5.89406 1.7256 5.62001 1.45226C5.34668 1.1782 5.02188 0.960865 4.66427 0.812737C4.30667 0.664609 3.92333 0.588612 3.53626 0.589114C3.14919 0.58862 2.76585 0.664621 2.40825 0.812749C2.05065 0.960876 1.72585 1.17821 1.45251 1.45226C1.17845 1.7256 0.96112 2.0504 0.812993 2.408C0.664865 2.7656 0.588864 3.14895 0.589358 3.53602C0.588856 3.92308 0.664853 4.30643 0.812981 4.66403C0.961109 5.02163 1.17845 5.34643 1.45251 5.61977C1.72585 5.89382 2.05065 6.11115 2.40825 6.25928C2.76585 6.40741 3.14919 6.48341 3.53626 6.48292Z" fill="white" stroke="white" stroke-width="0.58938" stroke-linejoin="round"/>
<path d="M2.35742 3.5369L3.24149 4.42097L5.00963 2.65283" stroke="black" stroke-width="0.58938" stroke-linecap="round" stroke-linejoin="round"/>
</mask>
<g mask="url(#mask0_799_949)">
<path d="M0 0.000488281H7.07256V7.07305H0V0.000488281Z" fill="#01BFA0"/>
</g>
</g>
<defs>
<clipPath id="clip0_799_949">
<rect width="7.07256" height="7.07256" fill="white"/>
</clipPath>
</defs>
</svg>
