<svg width="20" height="20" viewBox="0 0 20 20" fill="none" xmlns="http://www.w3.org/2000/svg">
<path fill-rule="evenodd" clip-rule="evenodd" d="M9.72556 1.58765C14.2128 1.58765 17.8632 5.23809 17.8632 9.72532C17.8632 14.2125 14.2128 17.863 9.72556 17.863C5.23833 17.863 1.58789 14.2125 1.58789 9.72532C1.58789 5.23809 5.23833 1.58765 9.72556 1.58765ZM9.72556 2.77852C5.8949 2.77852 2.77877 5.89466 2.77877 9.72532C2.77877 13.556 5.8949 16.6721 9.72556 16.6721C13.5562 16.6721 16.6723 13.556 16.6723 9.72532C16.6723 5.89466 13.5562 2.77852 9.72556 2.77852ZM9.39275 6.95565C9.80559 7.12793 12.7026 8.61176 12.7026 9.72166C12.7026 10.7617 10.0954 12.2162 9.42927 12.494C9.16966 12.602 8.87353 12.7036 8.59645 12.7036C8.38209 12.7036 8.17885 12.6425 8.01292 12.4774C7.8851 12.3511 7.54371 12.0137 7.54212 9.79153C7.54133 7.432 7.89621 7.08109 8.01292 6.96438C8.42814 6.55313 9.10456 6.83497 9.39275 6.95565ZM8.83939 8.00759C8.69886 8.80231 8.69648 10.7006 8.83701 11.4548C9.53407 11.2087 11.0441 10.2163 11.4506 9.72484C11.0457 9.24769 9.55471 8.27594 8.83939 8.00759Z" fill="#008BDC"/>
</svg>
