<svg width="18" height="18" viewBox="0 0 18 18" fill="none" xmlns="http://www.w3.org/2000/svg">
<path fill-rule="evenodd" clip-rule="evenodd" d="M12.2506 2.0625H5.74887C3.48312 2.0625 2.06262 3.66675 2.06262 5.937V12.063C2.06262 14.3332 3.47637 15.9375 5.74887 15.9375H12.2499C14.5231 15.9375 15.9376 14.3332 15.9376 12.063V5.937C15.9376 3.66675 14.5231 2.0625 12.2506 2.0625Z" stroke="#B0B0B0" stroke-width="1.5" stroke-linecap="round" stroke-linejoin="round"/>
<path fill-rule="evenodd" clip-rule="evenodd" d="M8.01689 8.99984C8.01689 9.76709 7.39514 10.3888 6.62789 10.3888C5.86064 10.3888 5.23889 9.76709 5.23889 8.99984C5.23889 8.23259 5.86064 7.61084 6.62789 7.61084H6.63014C7.39589 7.61159 8.01689 8.23334 8.01689 8.99984Z" stroke="#B0B0B0" stroke-width="1.5" stroke-linecap="round" stroke-linejoin="round"/>
<path d="M8.01904 9H12.7575V10.389" stroke="#B0B0B0" stroke-width="1.5" stroke-linecap="round" stroke-linejoin="round"/>
<path d="M10.6364 10.389V9" stroke="#B0B0B0" stroke-width="1.5" stroke-linecap="round" stroke-linejoin="round"/>
</svg>
