<svg width="37" height="37" viewBox="0 0 37 37" fill="none" xmlns="http://www.w3.org/2000/svg">
<path d="M22.9711 21.8228H25.2514C24.1848 24.9118 23.274 26.3911 20.2433 27.6541C19.7374 27.865 19.4513 28.4033 19.5591 28.9406C19.6667 29.4768 20.1378 29.8626 20.6852 29.8626C20.6864 29.8626 20.6864 29.8626 20.6875 29.8626C27.0102 29.8514 30.6421 27.3165 33.2174 21.1207C34.0394 19.1745 34.4566 17.0917 34.4566 14.9314C34.4566 11.6091 33.4517 9.79992 31.9195 7.41873C31.7086 7.09013 31.3441 6.89155 30.9538 6.89155H22.9711C21.071 6.89155 19.5254 8.43716 19.5254 10.3372V18.3771C19.5254 20.2772 21.071 21.8228 22.9711 21.8228ZM5.74277 21.8228H8.02311C6.95644 24.9118 6.04564 26.3911 3.01495 27.6541C2.50912 27.865 2.22302 28.4033 2.33075 28.9406C2.43837 29.4768 2.90951 29.8626 3.45691 29.8626C3.45806 29.8626 3.45806 29.8626 3.45921 29.8626C9.78189 29.8514 13.4137 27.3165 15.989 21.1207C16.811 19.1745 17.2283 17.0917 17.2283 14.9314C17.2283 11.6091 16.2233 9.79992 14.6912 7.41873C14.4803 7.09013 14.1157 6.89155 13.7255 6.89155H5.74277C3.84271 6.89155 2.2971 8.43716 2.2971 10.3372V18.3771C2.2971 20.2772 3.84271 21.8228 5.74277 21.8228Z" fill="#01BFA0"/>
</svg>
