<svg width="36" height="36" viewBox="0 0 36 36" fill="none" xmlns="http://www.w3.org/2000/svg">
<g clip-path="url(#clip0_110_3393)">
<path fill-rule="evenodd" clip-rule="evenodd" d="M18.1408 0C21.1935 0 23.6662 2.75292 23.6662 6.15167C23.6662 9.55042 21.1935 12.3033 18.1408 12.3033C15.0881 12.3033 12.6154 9.55042 12.6154 6.15167C12.6183 2.75292 15.091 0 18.1408 0ZM8.84489 15.5096C9.62419 14.2669 10.6877 14.1625 12.2463 13.9603H23.8273C25.6261 14.3256 26.8947 14.6746 27.759 16.3381L34.5588 26.6909C35.3351 27.8717 36.0031 28.6089 36.0002 30.181C35.9972 31.4662 35.4406 32.6469 34.5236 33.3091C33.3459 34.1636 32.4465 33.9125 31.257 33.4493L26.59 31.6358V36H9.2697V31.8934L3.84978 33.6678C2.08025 34.0951 0.817551 33.3645 0.304855 31.9913C-0.550613 29.7113 0.54509 28.1522 1.66716 26.4691L8.84489 15.5096ZM9.43083 24.7959V17.4015L18.0383 20.6534L26.7511 17.1634V24.8546C20.7365 23.452 20.4845 29.5222 24.2023 31.4792L17.9328 33.6678L11.8771 31.3031C15.6974 29.346 14.9181 23.0639 9.43083 24.7959Z" fill="#01AE92"/>
</g>
<defs>
<clipPath id="clip0_110_3393">
<rect width="36" height="36" fill="white"/>
</clipPath>
</defs>
</svg>
