<svg width="10" height="10" viewBox="0 0 10 10" fill="none" xmlns="http://www.w3.org/2000/svg">
<path d="M7.43741 5.94388C7.32991 6.04806 7.28051 6.19873 7.305 6.34649L7.67399 8.3886C7.70512 8.56168 7.63207 8.73684 7.48721 8.83687C7.34526 8.94063 7.15641 8.95308 7.00159 8.87007L5.16328 7.91128C5.09936 7.87724 5.02838 7.85898 4.95575 7.8569H4.84327C4.80425 7.86271 4.76606 7.87517 4.7312 7.89426L2.89247 8.85762C2.80157 8.90328 2.69864 8.91946 2.59778 8.90328C2.35206 8.85679 2.18811 8.62269 2.22837 8.37573L2.59778 6.33362C2.62227 6.18462 2.57287 6.03312 2.46537 5.92728L0.966582 4.47456C0.841233 4.35295 0.797652 4.17032 0.85493 4.00554C0.910549 3.84117 1.0525 3.72122 1.22392 3.69424L3.28678 3.39498C3.44368 3.37879 3.58148 3.28333 3.65204 3.14221L4.56102 1.27858C4.58261 1.23707 4.61042 1.19889 4.64404 1.16651L4.68139 1.13746C4.7009 1.11587 4.72331 1.09803 4.74822 1.0835L4.79346 1.0669L4.86402 1.03784H5.03876C5.19482 1.05403 5.33221 1.14742 5.40402 1.28688L6.32504 3.14221C6.39145 3.27793 6.52053 3.37215 6.66954 3.39498L8.7324 3.69424C8.90673 3.71915 9.05241 3.83951 9.11011 4.00554C9.16448 4.17198 9.11758 4.35461 8.98974 4.47456L7.43741 5.94388Z" fill="#FDC341"/>
</svg>
