<svg width="20" height="20" viewBox="0 0 20 20" fill="none" xmlns="http://www.w3.org/2000/svg">
<path fill-rule="evenodd" clip-rule="evenodd" d="M9.43702 11.4437L9.52667 11.4437L9.7272 11.4444C11.2599 11.4545 14.7626 11.6093 14.7626 13.9834C14.7626 16.3419 11.382 16.4957 9.75109 16.5058L9.14683 16.5058C7.61401 16.4957 4.11062 16.341 4.11062 13.9699C4.11062 11.6084 7.61401 11.4544 9.14683 11.4444L9.34738 11.4437C9.37849 11.4437 9.40839 11.4437 9.43702 11.4437ZM9.43702 12.6345C7.55067 12.6345 5.3015 12.8664 5.3015 13.9699C5.3015 15.0485 7.41642 15.3006 9.26461 15.3149L9.43702 15.3156C11.3234 15.3156 13.5718 15.0846 13.5718 13.9834C13.5718 12.8687 11.3234 12.6345 9.43702 12.6345ZM15.7515 11.1215C17.6752 11.4097 18.0793 12.3132 18.0793 13.0205C18.0793 13.4524 17.9094 14.2408 16.7741 14.6735C16.7042 14.6997 16.6328 14.7124 16.5621 14.7124C16.3224 14.7124 16.0961 14.5663 16.0056 14.3289C15.8881 14.0217 16.0429 13.6771 16.3502 13.5604C16.8884 13.3556 16.8884 13.1293 16.8884 13.0205C16.8884 12.6728 16.4462 12.4299 15.5745 12.2997C15.2498 12.2504 15.0251 11.9479 15.0735 11.6216C15.122 11.2961 15.4236 11.0794 15.7515 11.1215ZM3.79972 11.6216C3.84815 11.9479 3.62347 12.2504 3.29876 12.2997C2.42704 12.4299 1.98482 12.6728 1.98482 13.0205C1.98482 13.1293 1.98482 13.3548 2.52389 13.5604C2.83114 13.6771 2.98596 14.0217 2.86846 14.3289C2.77795 14.5663 2.55168 14.7124 2.31192 14.7124C2.24126 14.7124 2.16981 14.6997 2.09994 14.6735C0.963844 14.24 0.793945 13.4516 0.793945 13.0205C0.793945 12.3139 1.19805 11.4097 3.12251 11.1215C3.4504 11.0802 3.7505 11.2961 3.79972 11.6216ZM9.43702 3.17578C11.4377 3.17578 13.0644 4.80331 13.0644 6.8032C13.0644 8.80308 11.4377 10.4306 9.43702 10.4306H9.41559C8.44701 10.4274 7.53956 10.0479 6.85996 9.362C6.17878 8.67685 5.80643 7.76701 5.81037 6.80081C5.81037 4.80331 7.43714 3.17578 9.43702 3.17578ZM9.43702 4.36666C8.09371 4.36666 7.00126 5.45989 7.00126 6.8032C6.9989 7.45421 7.24819 8.06315 7.70469 8.52283C8.1612 8.9825 8.76934 9.23735 9.41718 9.23973L9.43702 9.83517V9.23973C10.7803 9.23973 11.8736 8.1473 11.8736 6.8032C11.8736 5.45989 10.7803 4.36666 9.43702 4.36666ZM14.3506 3.95342C15.7463 4.18287 16.7601 5.37692 16.7601 6.79248C16.757 8.21756 15.6923 9.4402 14.2831 9.63788C14.2553 9.64185 14.2275 9.64344 14.2005 9.64344C13.9084 9.64344 13.6535 9.42829 13.6114 9.13057C13.5662 8.80427 13.7925 8.50337 14.1188 8.45812C14.9444 8.34221 15.5677 7.62609 15.5693 6.79089C15.5693 5.96283 14.9754 5.2626 14.1569 5.12842C13.833 5.07523 13.613 4.76878 13.6662 4.44407C13.7202 4.11935 14.0243 3.90182 14.3506 3.95342ZM5.20782 4.44407C5.26101 4.76878 5.04109 5.07523 4.71718 5.12842C3.89864 5.2626 3.30479 5.96283 3.30479 6.79248C3.30638 7.62609 3.92961 8.343 4.75449 8.45812C5.08079 8.50337 5.30706 8.80427 5.2618 9.13057C5.21973 9.42829 4.96488 9.64344 4.67272 9.64344C4.64572 9.64344 4.61794 9.64185 4.59015 9.63788C3.18094 9.4402 2.11709 8.21756 2.11392 6.79407C2.11392 5.37692 3.12775 4.18287 4.52346 3.95342C4.8577 3.90103 5.15383 4.12094 5.20782 4.44407Z" fill="#008BDC"/>
</svg>
