<svg width="20" height="20" viewBox="0 0 20 20" fill="none" xmlns="http://www.w3.org/2000/svg">
<path fill-rule="evenodd" clip-rule="evenodd" d="M9.52708 1.58765C13.9047 1.58765 17.4663 5.14917 17.4663 9.52684C17.4663 13.9045 13.9047 17.466 9.52708 17.466C5.14941 17.466 1.58789 13.9045 1.58789 9.52684C1.58789 5.14917 5.14941 1.58765 9.52708 1.58765ZM9.52708 2.77852C5.80598 2.77852 2.77877 5.80574 2.77877 9.52684C2.77877 13.2479 5.80598 16.2751 9.52708 16.2751C13.2482 16.2751 16.2754 13.2479 16.2754 9.52684C16.2754 5.80574 13.2482 2.77852 9.52708 2.77852ZM9.2581 5.63298C9.58758 5.63298 9.85354 5.89974 9.85354 6.22842V9.73913L12.5568 11.3508C12.8387 11.5199 12.9316 11.8851 12.7633 12.1677C12.6513 12.3543 12.4536 12.4583 12.2512 12.4583C12.1472 12.4583 12.0424 12.4313 11.9463 12.3749L8.95324 10.5894C8.77381 10.4814 8.66266 10.2869 8.66266 10.0773V6.22842C8.66266 5.89974 8.92942 5.63298 9.2581 5.63298Z" fill="#008BDC"/>
</svg>
