<svg width="36" height="36" viewBox="0 0 36 36" fill="none" xmlns="http://www.w3.org/2000/svg">
<path d="M24.7733 4.5C29.9467 4.5 33 7.47689 33 12.5727H26.6533V12.6247C23.7078 12.6247 21.32 14.9527 21.32 17.8245C21.32 20.6963 23.7078 23.0243 26.6533 23.0243H33V23.4923C33 28.5231 29.9467 31.5 24.7733 31.5H11.2267C6.05333 31.5 3 28.5231 3 23.4923V12.5077C3 7.47689 6.05333 4.5 11.2267 4.5H24.7733ZM31.88 14.8086C32.4986 14.8086 33 15.2975 33 15.9006V19.6964C32.9928 20.2966 32.4956 20.7814 31.88 20.7884H26.7733C25.2822 20.808 23.9782 19.8126 23.64 18.3965C23.4706 17.5174 23.7084 16.6103 24.2896 15.9183C24.8708 15.2263 25.736 14.8201 26.6533 14.8086H31.88ZM27.3733 16.5636H26.88C26.5771 16.5601 26.2854 16.675 26.07 16.8826C25.8545 17.0902 25.7333 17.3732 25.7333 17.6685C25.7333 18.2881 26.2446 18.7923 26.88 18.7995H27.3733C28.0066 18.7995 28.52 18.2989 28.52 17.6815C28.52 17.0641 28.0066 16.5636 27.3733 16.5636ZM18.5733 10.3368H10.1067C9.47855 10.3367 8.9673 10.8294 8.96 11.4417C8.96 12.0613 9.47123 12.5656 10.1067 12.5727H18.5733C19.2066 12.5727 19.72 12.0722 19.72 11.4547C19.72 10.8373 19.2066 10.3368 18.5733 10.3368Z" fill="#007EC8"/>
</svg>
