<svg width="21" height="21" viewBox="0 0 21 21" fill="none" xmlns="http://www.w3.org/2000/svg">
<g opacity="0.3">
<path d="M10.4355 14.5088V12.3016" stroke="#005043" stroke-width="1.5" stroke-linecap="round" stroke-linejoin="round"/>
<path fill-rule="evenodd" clip-rule="evenodd" d="M15.8254 4.63733C17.2957 4.63733 18.4789 5.82923 18.4789 7.29953V10.2923C16.3387 11.5451 13.5112 12.302 10.4314 12.302C7.35158 12.302 4.53278 11.5451 2.39258 10.2923V7.29083C2.39258 5.82053 3.58448 4.63733 5.05478 4.63733H15.8254Z" stroke="#005043" stroke-width="1.5" stroke-linecap="round" stroke-linejoin="round"/>
<path d="M13.4806 4.63345V4.31503C13.4806 3.25363 12.6193 2.39233 11.5579 2.39233H9.31332C8.25192 2.39233 7.39062 3.25363 7.39062 4.31503V4.63345" stroke="#005043" stroke-width="1.5" stroke-linecap="round" stroke-linejoin="round"/>
<path d="M2.41406 13.4702L2.57849 15.653C2.68985 17.1242 3.91568 18.2613 5.39033 18.2613H15.4815C16.9561 18.2613 18.1819 17.1242 18.2933 15.653L18.4577 13.4702" stroke="#005043" stroke-width="1.5" stroke-linecap="round" stroke-linejoin="round"/>
</g>
</svg>
